# xmcd
#
# Track frame offsets: 
#        150
#        12410
#        23919
#        37983
#        51454
#        63649
#        82977
#        95414
#        108865
#        122571
#        133045
#        144276
#        154281
#        167200
#        184641
#        195934
#
# Disc length: 2740 seconds
#
# Revision: 0
# Processed by: cddbd v1.5.2PL0 Copyright (c) Steve Scherf et al.
# Submitted via: ExactAudioCopy v0.99pb1
#
DISCID=d00ab210
DTITLE=Paycheck, Johnny - Remembering
DYEAR=2002
DGENRE=Country
TTITLE0=She's All I Got
TTITLE1=Take This Job and Shove It
TTITLE2=Someone To Give My Love To
TTITLE3=The Only Hell My Mama Ever Raised
TTITLE4=Song and Dance Man
TTITLE5=21 Miles To Lake Charles Prison
TTITLE6=Living the Life of a Dog
TTITLE7=I Got Wine On My Mind
TTITLE8=My Sweet Love Ain't Around
TTITLE9=Who Needs Your Love (I Do)
TTITLE10=If You Had Only Taken The Time
TTITLE11=Sunny Side of the Mountain
TTITLE12=Forever Ended Yesterday
TTITLE13=Julie
TTITLE14=The Creeks Will Still Be Running
TTITLE15=I'm Remembering
EXTD=
EXTT0=
EXTT1=
EXTT2=
EXTT3=
EXTT4=
EXTT5=
EXTT6=
EXTT7=
EXTT8=
EXTT9=
EXTT10=
EXTT11=
EXTT12=
EXTT13=
EXTT14=
EXTT15=
PLAYORDER=
